<svg width="78" height="102" viewBox="0 0 78 102" fill="none" xmlns="http://www.w3.org/2000/svg">
<path d="M72.0013 12.0002C72.0013 8.81756 70.737 5.76526 68.4865 3.51478C66.236 1.2643 63.1837 0 60.001 0H32.4846C29.3022 0.000679661 26.2504 1.26543 24.0004 3.51606L3.51606 24.0004C1.26543 26.2504 0.000679661 29.3022 0 32.4846V84.0015C0 87.1841 1.26431 90.2364 3.51478 92.4869C5.76526 94.7374 8.81756 96.0017 12.0002 96.0017H21.1684C15.0374 89.1431 11.7646 80.1976 12.022 71.0018C12.2794 61.806 16.0473 53.0576 22.5523 46.5527C29.0572 40.0477 37.8056 36.2798 47.0014 36.0224C56.1972 35.7651 65.1427 39.0378 72.0013 45.1688V12.0002Z" fill="url(#paint0_linear_17_99)"/>
<path fill-rule="evenodd" clip-rule="evenodd" d="M48.0009 48.0009C52.233 48.0002 56.39 49.1187 60.0504 51.2428C63.7108 53.367 66.7445 56.4213 68.8438 60.096C70.9431 63.7707 72.0334 67.9351 72.0041 72.1671C71.9749 76.3991 70.8271 80.5481 68.6772 84.1935L76.2434 91.7536C76.8008 92.3107 77.2431 92.9721 77.545 93.7001C77.8468 94.4281 78.0023 95.2085 78.0026 95.9966C78.0029 96.7847 77.8479 97.5651 77.5466 98.2933C77.2453 99.0216 76.8034 99.6833 76.2464 100.241C75.6893 100.798 75.0279 101.241 74.2999 101.542C73.5718 101.844 72.7915 102 72.0034 102C71.2153 102 70.4349 101.845 69.7066 101.544C68.9784 101.243 68.3167 100.801 67.7592 100.244L60.1931 92.6776C57.0139 94.5514 53.4456 95.6668 49.7653 95.9372C46.085 96.2076 42.3919 95.6257 38.973 94.2367C35.5542 92.8477 32.5017 90.6891 30.0528 87.9285C27.6038 85.168 25.8245 81.8799 24.8529 78.3199C23.8814 74.7598 23.7439 71.0237 24.4511 67.4019C25.1583 63.7801 26.6911 60.3701 28.9305 57.437C31.1698 54.5039 34.0554 52.1267 37.3628 50.4901C40.6703 48.8536 44.3106 48.0017 48.0009 48.0009ZM60.0011 72.0013C60.0011 68.8186 58.7368 65.7663 56.4863 63.5158C54.2358 61.2654 51.1835 60.0011 48.0009 60.0011C44.8182 60.0011 41.7659 61.2654 39.5154 63.5158C37.265 65.7663 36.0007 68.8186 36.0007 72.0013C36.0007 75.1839 37.265 78.2362 39.5154 80.4867C41.7659 82.7372 44.8182 84.0015 48.0009 84.0015C51.1835 84.0015 54.2358 82.7372 56.4863 80.4867C58.7368 78.2362 60.0011 75.1839 60.0011 72.0013Z" fill="url(#paint1_linear_17_99)"/>
<defs>
<linearGradient id="paint0_linear_17_99" x1="-6.72191e-07" y1="-0.247998" x2="434" y2="102.752" gradientUnits="userSpaceOnUse">
<stop stop-color="#1C1678"/>
<stop offset="1" stop-color="#8576FF"/>
</linearGradient>
<linearGradient id="paint1_linear_17_99" x1="-6.72191e-07" y1="-0.247998" x2="434" y2="102.752" gradientUnits="userSpaceOnUse">
<stop stop-color="#1C1678"/>
<stop offset="1" stop-color="#8576FF"/>
</linearGradient>
</defs>
</svg>
